<?xml version="1.0" encoding="UTF-8"?>
<svg id="Calque_2" data-name="Calque 2" xmlns="http://www.w3.org/2000/svg" viewBox="0 0 166.49 99">
  <defs>
    <style>
      .cls-1 {
        stroke-width: 0px;
      }
    </style>
  </defs>
  <g id="Calque_11" data-name="Calque 11">
    <g>
      <path class="cls-1" d="m22.49,0h36.19c5.36,0,10.23,3.14,12.45,8.02l41.35,90.98h-36.19c-5.36,0-10.23-3.14-12.45-8.02L22.49,0Z"/>
      <path class="cls-1" d="m76.49,0h36.19c5.36,0,10.23,3.14,12.45,8.02l41.35,90.98h-36.19c-5.36,0-10.23-3.14-12.45-8.02L76.49,0Z"/>
      <path class="cls-1" d="m58.5,99H22.5c-12.42,0-22.5-10.07-22.5-22.5,0-4.67,1.43-9,3.87-12.6,4.05-5.97,10.88-9.9,18.63-9.9,8.78,0,16.37,5.03,20.07,12.37h0l15.93,32.63Z"/>
    </g>
  </g>
</svg>