<svg width="153" height="91" viewBox="0 0 153 91" fill="none" xmlns="http://www.w3.org/2000/svg">
<path opacity="0.6" d="M21.4454 0.5H53.9286C58.6582 0.5 62.9562 3.27135 64.9154 7.57893L102.596 90.5H70.1127C65.3832 90.5 61.0853 87.7287 59.126 83.4212C59.126 83.4212 59.126 83.4211 59.126 83.4211L21.4454 0.5ZM108.754 83.4211L71.073 0.5H103.556C108.286 0.5 112.584 3.27135 114.543 7.57893L152.224 90.5H119.74C115.011 90.5 110.713 87.7287 108.754 83.4212C108.754 83.4212 108.754 83.4211 108.754 83.4211ZM38.6766 61.2318L52.9628 90.5H20.6782C9.5399 90.5 0.5 81.4675 0.5 70.3182C0.5 66.1294 1.78203 62.2464 3.97056 59.0169C7.60399 53.6601 13.7292 50.1364 20.6782 50.1364C28.5499 50.1364 35.3559 54.6455 38.6752 61.2291C38.6757 61.23 38.6761 61.2309 38.6766 61.2318Z" fill="url(#paint0_linear_63_14)" stroke="url(#paint1_linear_63_14)"/>
<defs>
<linearGradient id="paint0_linear_63_14" x1="68.0082" y1="-6.89394" x2="96.0479" y2="102.488" gradientUnits="userSpaceOnUse">
<stop stop-color="white" stop-opacity="0.27"/>
<stop offset="1" stop-color="white" stop-opacity="0"/>
</linearGradient>
<linearGradient id="paint1_linear_63_14" x1="108.445" y1="-16.0859" x2="76.2687" y2="111.679" gradientUnits="userSpaceOnUse">
<stop stop-color="#C0C0C0" stop-opacity="0.29"/>
<stop offset="1" stop-color="white" stop-opacity="0"/>
</linearGradient>
</defs>
</svg>
